# xmcd
#
# Track frame offsets:
#	150
#	19770
#	43542
#	64425
#	87992
#	111742
#	137057
#	156257
#	183127
#	206395
#	228600
#	246045
#	267287
#
# Disc length: 4055 seconds
#
# Revision: 1
# Processed by: cddbd v1.4PL0 Copyright (c) Steve Scherf et al.
# Submitted via: CDmax 2.0
#
DISCID=b80fd50d
DTITLE=Sérgio Bap - Sentimental Blues vol 1
DYEAR=1900
DGENRE=Blues
TTITLE0=Shalceus Blues
TTITLE1=Alecrim Street
TTITLE2=Boomerang
TTITLE3=Sleeping Blues
TTITLE4=Bolero
TTITLE5=Texas Feeling
TTITLE6=Blues Underwater
TTITLE7=Blues on the Water
TTITLE8=Sentimental Blues
TTITLE9=Súplica
TTITLE10=Mexican Beat
TTITLE11=Sunburst
TTITLE12=Tribute
EXTD=
EXTT0=
EXTT1=
EXTT2=
EXTT3=
EXTT4=
EXTT5=
EXTT6=
EXTT7=
EXTT8=
EXTT9=
EXTT10=
EXTT11=
EXTT12=
PLAYORDER=
